<?xml version="1.0" encoding="utf-8"?>
<!-- Generator: Adobe Illustrator 22.1.0, SVG Export Plug-In . SVG Version: 6.00 Build 0)  -->
<svg version="1.1" id="Слой_1" xmlns="http://www.w3.org/2000/svg" xmlns:xlink="http://www.w3.org/1999/xlink" x="0px" y="0px"
	 viewBox="0 0 1000 1000" style="enable-background:new 0 0 1000 1000;" xml:space="preserve">
<style type="text/css">
	.st0{display:none;}
	.st1{fill:#FFFFFF;stroke:#000000;stroke-width:5;stroke-miterlimit:10;}
	.st2{fill:#0000A6;}
	.st3{fill:#DBEF00;}
	.st4{fill:url(#SVGID_1_);}
	.st5{fill:url(#SVGID_2_);}
	.st6{fill:none;}
	.st7{font-family:'MyriadPro-Regular';}
	.st8{font-size:128px;}
</style>
<g class="st0">
	
		<image style="display:inline;overflow:visible;" width="261" height="299" xlink:href="Screenshot_9.png"  transform="matrix(2.7576 0 0 2.7576 140.1311 87.7364)">
	</image>
</g>
<line class="st1" x1="524.7" y1="708" x2="320" y2="206"/>
<circle cx="320" cy="206" r="10.3"/>
<path class="st2" d="M800.8,338.3c-2.5-10.8-7.3-13.8-15-7.5c-10,13.7-21.1,23.1-35.8,18.8c-1.6-7.1-3.7-11.7-6.2-14.2l0,0
	c-3-3-6.5-3.1-10.3-1.3c-11.1,9.3-24.2,17.6-39.5,24.8c-21.2,10-46.8,17.8-77.5,23.2c-77.2,1.3-146.3,18.8-203.8,51.3
	c-5.7-38.4-17.2-79.7-36.3-123c-13.4-30.4-30.6-61.8-52.1-93.9c24.9-17,92.8-21.1,200.5-13.3c2.3-0.8,4.6-1.6,6.9-2.3
	c15-4.7,28.6-7.1,38.1-3.1c2.8,1.2,5.3,3,7.3,5.4c36.8,0,70-11.2,100.5-31c-1.3,22,7.3,39.5,21.5,54.5c9.2,5.8,18.3,11.7,27,17.5
	c26.5,17.6,50,35.3,65,53C807.9,317.1,809.2,330,800.8,338.3z"/>
<path class="st3" d="M800.8,338.3c-2.5-10.8-7.3-13.8-15-7.5c-10,13.7-21.1,23.1-35.8,18.8c-1.6-7.1-3.7-11.7-6.2-14.2l0,0
	c-3-3-6.5-3.1-10.3-1.3c-11.1,9.3-24.2,17.6-39.5,24.8c-21.2,10-46.8,17.8-77.5,23.2c-77.2,1.3-146.3,18.8-203.8,51.3
	c-5.7-38.4-17.2-79.7-36.3-123L376,305c77.2,2.1,148.6-1.6,209.5-15.5c8.5-4.4,16.9-8.5,24.8-12.1c18-8.1,34.2-13.4,46.7-13.4
	c1.5-0.3,2.9-0.5,4.3-0.8c26-4.9,46-12.4,56.7-23.7l8,4.5c26.5,17.6,50,35.3,65,53C807.9,317.1,809.2,330,800.8,338.3z"/>
<linearGradient id="SVGID_1_" gradientUnits="userSpaceOnUse" x1="731.3423" y1="222.9333" x2="630.3964" y2="321.1079">
	<stop  offset="0" style="stop-color:#FFFFFF;stop-opacity:0"/>
	<stop  offset="1" style="stop-color:#000000"/>
</linearGradient>
<path class="st4" d="M800.8,338.3c-2.5-10.8-7.3-13.8-15-7.5c-10,13.7-21.1,23.1-35.8,18.8c-1.6-7.1-3.7-11.7-6.2-14.2l0,0L743,331
	c-22.9-21.6-50.5-44.3-81.7-67.8c-28.1-21.1-59.1-42.9-92.3-65.2l0.7-0.4c2.8,1.2,5.3,3,7.3,5.4c36.8,0,70-11.2,100.5-31
	c-1.3,22,7.3,39.5,21.5,54.5c9.2,5.8,18.3,11.7,27,17.5c26.5,17.6,50,35.3,65,53C807.9,317.1,809.2,330,800.8,338.3z"/>
<linearGradient id="SVGID_2_" gradientUnits="userSpaceOnUse" x1="574.3361" y1="224.1004" x2="307.4537" y2="483.6559">
	<stop  offset="2.445319e-08" style="stop-color:#FFFFFF;stop-opacity:0"/>
	<stop  offset="1" style="stop-color:#000000"/>
</linearGradient>
<path class="st5" d="M694,358.8c-21.2,10-46.8,17.8-77.5,23.2c-77.2,1.3-146.3,18.8-203.8,51.3c-5.7-38.4-17.2-79.7-36.3-123
	c-13.4-30.4-30.6-61.8-52.1-93.9c24.9-17,92.8-21.1,200.5-13.3c2.3-0.8,4.6-1.6,6.9-2.3l78.8,76.7L694,358.8z"/>
<path d="M422.3,517.7c4.5,10.5,11.1,19.9,20.7,27.7h20.3c19.3,18.3,47.4,30.6,79.7,40c14.7,2.7,28.5,3.5,40,0
	c-1.5,7.1-11.2,9.6-23.3,10.7c-13.4-1.3-23.8-3.7-28.7-8.3l1.7,47l-24.3,0c-5.1-6.9-11-12.3-19-13.4c-8.1-0.3-13.7,1.5-17,5.4
	c-1.5,12.8,3,21.7,12.7,27.3c10.1,2.4,18.5,2.7,23.3-1.3l22.3,0.7l-16,82l110.3,0c-21.6-47.8-21.3-96.9-4.3-146.3
	c8.1-31.1,2.9-48.7-16.3-52.3l-25.3,0l-0.7-10.7c15.2-17.5,19.4-37.3,4-61c-22.3-12.6-37.5-9.4-48.7,3c-10,17.8-9.2,34.3-1.3,50
	c6.1,6.3,12.5,11.2,20,11l-1.3,14c-16.8,6.7-47.3-1.2-82.3-14c-3.4-15.6-10.6-23.8-22.3-23.8C435.1,506.2,427.5,510.8,422.3,517.7z"
	/>
<rect x="198" y="620.5" class="st6" width="268" height="118"/>
<text transform="matrix(1 0 0 1 198 711.3789)" class="st2 st7 st8">FREE</text>
<rect x="198" y="738.5" class="st6" width="495.5" height="106.5"/>
<text transform="matrix(1 0 0 1 198 829.3789)" class="st3 st7 st8">UKRAINE</text>
</svg>
